<svg xmlns="http://www.w3.org/2000/svg" width="20" height="20" viewBox="0 0 20 20">
  <defs>
    <style>
      .cls-1 {
        fill: #fd0;
        opacity: 0;
      }

      .cls-2 {
        fill: none;
        stroke: #1c1e1e;
        stroke-linecap: round;
        stroke-linejoin: round;
        stroke-width: 1.2px;
      }
    </style>
  </defs>
  <g id="icon_客服" transform="translate(0 -1)">
    <rect id="Rectangle_2" data-name="Rectangle 2" class="cls-1" width="20" height="20" transform="translate(0 1)"/>
    <g id="组_10106" data-name="组 10106" transform="translate(0 0.435)">
      <path id="路径_66" data-name="路径 66" class="cls-2" d="M1318.248,370.438c-.091-.091-1-1.091-3.636-1.273h-1.364c-.273.091-.363.273-.363.364,0,.182.091.273.091.363l-.273.273a2.765,2.765,0,0,0-.727,1.363,5.863,5.863,0,0,0,.091,2.182v.091a.774.774,0,0,0-.273.545,2.407,2.407,0,0,0,.454,1.363.9.9,0,0,0,.364.454,3.288,3.288,0,0,1,1,2.182v.727s-.091.182-1,.455l-1.091.182a5.588,5.588,0,0,0-1.636.637,2.89,2.89,0,0,0-.909.909,2.178,2.178,0,0,0-.363,1.182v.454a.241.241,0,0,0,.273.273h13a.241.241,0,0,0,.273-.273v-.364a2.745,2.745,0,0,0-.273-1.182,2.885,2.885,0,0,0-.909-.908,4.278,4.278,0,0,0-1.727-.637,3.885,3.885,0,0,1-1.091-.182c-.909-.273-1-.454-1-.454v-.727a3.557,3.557,0,0,1,1.091-2.182c.091-.182.273-.273.364-.454a2.6,2.6,0,0,0,.454-1.363v-.273a.242.242,0,0,0-.273-.273v-.09a2.257,2.257,0,0,0,.091-.728,8.844,8.844,0,0,0-.091-1.455,2.959,2.959,0,0,0-.545-1.181Zm0,0" transform="translate(-1305.412 -365.6)"/>
    </g>
  </g>
</svg>
