<svg xmlns="http://www.w3.org/2000/svg" width="20" height="20" viewBox="0 0 20 20">
  <defs>
    <style>
      .cls-1 {
        opacity: 0;
      }

      .cls-2 {
        fill: none;
        stroke: #303133;
        stroke-linecap: round;
        stroke-linejoin: round;
        stroke-width: 1.2px;
      }

      .cls-3 {
        fill: #303133;
      }
    </style>
  </defs>
  <g id="组_13726" data-name="组 13726" transform="translate(-290 -203)">
    <rect id="矩形_2545" data-name="矩形 2545" class="cls-1" width="20" height="20" transform="translate(290 203)"/>
    <g id="组_13725" data-name="组 13725" transform="translate(-0.514 -1.244)">
      <path id="路径_23771" data-name="路径 23771" class="cls-2" d="M307.528,207v4.316H305.37v-1.079h-9.712v1.079H293.5V207Z"/>
      <path id="矩形_2546" data-name="矩形 2546" class="cls-2" d="M0,0H9.712a0,0,0,0,1,0,0V8.251a2,2,0,0,1-2,2H2a2,2,0,0,1-2-2V0A0,0,0,0,1,0,0Z" transform="translate(295.658 210.237)"/>
      <path id="路径_23772" data-name="路径 23772" class="cls-3" d="M299.332,214.378h-.827a.486.486,0,0,0,0,.971h1.212v.774H298.5a.525.525,0,0,0,0,1.05h1.221v1.053a.486.486,0,1,0,.971,0v-1.053h1.21a.525.525,0,0,0,0-1.05h-1.21v-.774h1.219a.486.486,0,1,0,0-.971h-.865l1.548-1.548a.486.486,0,0,0-.687-.687l-1.717,1.717-1.717-1.717a.486.486,0,1,0-.687.687Z" transform="translate(0.327 0.006)"/>
    </g>
  </g>
</svg>
