<svg id="编组" xmlns="http://www.w3.org/2000/svg" width="22" height="22" viewBox="0 0 22 22">
  <defs>
    <style>
      .cls-1 {
        fill: #d8d8d8;
        stroke: #333;
        stroke-miterlimit: 10;
        opacity: 0;
      }

      .cls-2, .cls-4 {
        fill: none;
      }

      .cls-2 {
        fill-rule: evenodd;
      }

      .cls-3, .cls-5 {
        stroke: none;
      }

      .cls-5 {
        fill: #0486fe;
      }
    </style>
  </defs>
  <g id="矩形备份" class="cls-1">
    <rect class="cls-3" width="22" height="22"/>
    <rect class="cls-4" x="0.5" y="0.5" width="21" height="21"/>
  </g>
  <g id="person-fill" transform="translate(-1.5 -1.5)">
    <g id="路径_18675" data-name="路径 18675" class="cls-2">
      <path class="cls-3" d="M5.833,20.5A1.306,1.306,0,0,1,4.5,19.167c0-1.333,1.333-5.333,8-5.333s8,4,8,5.333A1.306,1.306,0,0,1,19.167,20.5Zm6.667-8a4,4,0,1,0-4-4A4,4,0,0,0,12.5,12.5Z"/>
      <path class="cls-5" d="M 18.98633003234863 19 C 18.92998123168945 18.60187530517578 18.68257713317871 17.80389595031738 17.93934059143066 17.06065940856934 C 16.80931091308594 15.93062973022461 14.9284200668335 15.33333015441895 12.5 15.33333015441895 C 10.0715799331665 15.33333015441895 8.190690040588379 15.93062973022461 7.060659885406494 17.06065940856934 C 6.317423343658447 17.80389595031738 6.070018291473389 18.60187530517578 6.013670921325684 19 L 18.98633003234863 19 M 12.5 11 C 13.87849998474121 11 15 9.878499984741211 15 8.5 C 15 7.121500015258789 13.87849998474121 6 12.5 6 C 11.12150001525879 6 10 7.121500015258789 10 8.5 C 10 9.878499984741211 11.12150001525879 11 12.5 11 M 19.16666984558105 20.5 L 5.833330154418945 20.5 C 5.833330154418945 20.5 4.5 20.5 4.5 19.16666984558105 C 4.5 17.83333015441895 5.833330154418945 13.83333015441895 12.5 13.83333015441895 C 19.16666984558105 13.83333015441895 20.5 17.83333015441895 20.5 19.16666984558105 C 20.5 20.5 19.16666984558105 20.5 19.16666984558105 20.5 Z M 12.5 12.5 C 10.29086017608643 12.5 8.5 10.70913982391357 8.5 8.5 C 8.5 6.290860176086426 10.29086017608643 4.5 12.5 4.5 C 14.70913982391357 4.5 16.5 6.290860176086426 16.5 8.5 C 16.5 10.70913982391357 14.70913982391357 12.5 12.5 12.5 Z"/>
    </g>
  </g>
</svg>
